<?xml version="1.0" encoding="utf-8"?>
<!-- Generator: Adobe Illustrator 17.0.0, SVG Export Plug-In . SVG Version: 6.00 Build 0)  -->
<!DOCTYPE svg PUBLIC "-//W3C//DTD SVG 1.1//EN" "http://www.w3.org/Graphics/SVG/1.1/DTD/svg11.dtd">
<svg version="1.1" id="Layer_1" xmlns="http://www.w3.org/2000/svg" xmlns:xlink="http://www.w3.org/1999/xlink" x="0px" y="0px"
	 width="100px" height="100px" viewBox="0 0 100 100" enable-background="new 0 0 100 100" xml:space="preserve">
<path fill="#FFFFFF" d="M50,0C22.386,0,0,22.386,0,50s22.386,50,50,50s50-22.386,50-50S77.614,0,50,0z M38.106,49.392
	c0,3.798-0.443,6.66-1.33,8.584c-0.886,1.925-2.22,3.431-4.001,4.52c-1.781,1.089-4.013,1.634-6.697,1.634
	c-2.685,0-4.925-0.544-6.723-1.634c-0.664-0.402-1.264-0.864-1.804-1.382v3.016H14v-14.99v-0.437V35.871h3.545v12.831h0.007v0.958
	c0.031,2.639,0.196,4.496,0.501,5.556c0.506,1.689,1.474,3.022,2.903,4.001c1.428,0.979,3.132,1.468,5.11,1.468
	s3.655-0.476,5.034-1.43c1.377-0.954,2.328-2.206,2.852-3.76c0.355-1.063,0.533-3.317,0.533-6.761V35.871h3.621L38.106,49.392
	L38.106,49.392z M59.768,60.281v3.139H38.575l15.583-24.435H40.043v-3.114h20.231l-15.598,24.41H59.768z M86,49.139v14.99h-3.551
	v-3.016c-0.54,0.518-1.14,0.98-1.804,1.382c-1.798,1.089-4.038,1.634-6.723,1.634c-2.684,0-4.916-0.544-6.697-1.634
	c-1.781-1.088-3.115-2.595-4-4.52c-0.887-1.924-1.33-4.785-1.33-8.584V35.871h3.621v12.863c0,3.444,0.177,5.697,0.533,6.761
	c0.524,1.554,1.475,2.807,2.852,3.76c1.379,0.954,3.055,1.43,5.034,1.43s3.682-0.489,5.109-1.468
	c1.43-0.979,2.397-2.312,2.904-4.001c0.304-1.06,0.47-2.917,0.501-5.556v-0.958h0.007V35.871H86v12.831V49.139z"/>
</svg>
